<svg xmlns:inkscape="http://www.inkscape.org/namespaces/inkscape" xmlns:sodipodi="http://sodipodi.sourceforge.net/DTD/sodipodi-0.dtd" xmlns:xlink="http://www.w3.org/1999/xlink" xmlns="http://www.w3.org/2000/svg" xmlns:svg="http://www.w3.org/2000/svg" width="207.43332mm" height="76.464584mm" viewBox="0 0 207.43332 76.464584" version="1.1" id="svg5" xml:space="preserve"><g inkscape:label="Layer 1" inkscape:groupmode="layer" id="layer1" transform="translate(-1.6048812,-122.4963)" class="fill-slate-300"><path style="stroke-width:0.264583" d="m 1.6048813,198.20662 v -0.75427 l 0.2392866,-0.76709 0.2392891,-0.76708 0.4324112,-1.98438 0.4324086,-1.98437 0.6224746,-2.77813 0.6224746,-2.77812 0.7034636,-3.175 0.7034636,-3.175 0.2446231,-1.05834 0.2446258,-1.05833 0.4123717,-1.85208 0.4123716,-1.85209 0.3768752,-1.5875 0.3768751,-1.5875 0.4245743,-1.98437 0.4245715,-1.98438 0.2425383,-0.92604 0.2425356,-0.92604 1.3409506,-6.08542 1.340951,-6.08541 0.391088,-1.71979 0.391089,-1.7198 0.242901,-1.05833 0.242898,-1.05833 0.695359,-3.04271 0.695359,-3.04271 0.36575,-1.5875 0.365752,-1.5875 1.239994,-5.55625 1.239996,-5.55625 0.197805,-0.92604 0.197805,-0.92604 0.316127,-1.38906 0.316124,-1.38907 h 95.228076 95.22807 l -0.006,0.46302 -0.006,0.46302 -0.2261,0.92605 -0.2261,0.92604 -1.49255,6.61458 -1.49256,6.61458 -0.26705,0.92605 -0.26706,0.92604 -0.2251,1.19062 -0.2251,1.19063 -1.11835,4.7625 -1.11835,4.7625 -0.21752,1.05833 -0.21752,1.05833 -1.3776,5.95313 -1.37759,5.95312 -0.34208,1.5875 -0.34208,1.5875 -0.16759,0.66146 -0.16758,0.66146 -0.24442,1.05833 -0.24442,1.05834 -0.53691,2.38125 -0.5369,2.38125 -0.25054,1.05833 -0.25055,1.05833 -0.68277,3.175 -0.68279,3.175 -0.24029,0.92605 -0.2403,0.92604 -0.69351,3.04271 -0.69351,3.0427 -0.36279,1.5875 -0.36279,1.5875 -0.16849,0.8599 -0.16848,0.8599 H 96.701542 1.6048813 Z m 125.4716587,-14.95021 1.11954,-0.0382 0.61134,-2.64584 0.61135,-2.64583 0.15706,-0.99219 0.15706,-0.99218 h -0.82546 -0.82546 l -0.17098,1.06921 -0.17097,1.06921 -1.12481,-0.16867 -1.12481,-0.16868 -0.57358,0.30698 -0.57359,0.30697 -0.51402,0.84301 -0.51402,0.84301 -0.001,1.0656 -10e-4,1.06561 0.3992,0.56995 0.3992,0.56993 0.59299,0.096 0.59298,0.096 0.3297,-0.10585 0.32971,-0.10585 1.11954,-0.0382 z m -1.78341,-1.3317 -0.47444,-0.34691 0.17487,-0.87439 0.17488,-0.87438 0.29541,-0.35595 0.29541,-0.35594 h 0.49173 0.49173 l 0.16601,0.66145 0.16602,0.66146 -0.1641,0.65383 -0.1641,0.65381 -0.48949,0.26197 -0.4895,0.26197 z m 9.25845,0.90192 0.37545,-0.31159 0.4449,-1.16496 0.4449,-1.16495 -0.33514,-0.80912 -0.33515,-0.80911 -0.55158,-0.38634 -0.55157,-0.38634 h -1.12758 -1.12758 l -0.83192,0.74332 -0.83191,0.74331 -0.12433,1.30721 -0.12432,1.3072 0.56101,0.71059 0.56101,0.71059 0.72179,0.0877 0.72178,0.0877 0.8674,-0.17682 0.86739,-0.17682 z m -2.7717,-1.93679 v -1.1377 l 0.3175,-0.3175 0.3175,-0.3175 h 0.6035 0.6035 l 0.16731,0.66659 0.1673,0.66659 -0.32665,0.78862 -0.32666,0.78861 h -0.76165 -0.76165 z m -24.45027,0.15714 1.10197,-2.1712 0.16478,0.16478 0.16477,0.16477 v 1.94858 1.94858 l 0.39747,0.15253 0.39746,0.15252 0.66087,-0.16587 0.66087,-0.16586 v -0.26047 -0.26046 l 1.58236,-3.18436 1.58236,-3.18435 -0.37628,-0.1444 -0.37628,-0.14439 -0.46926,0.0904 -0.46925,0.0904 -0.95648,1.97019 -0.95648,1.97019 -0.17361,-0.64912 -0.17361,-0.64912 -0.004,-1.38906 -0.004,-1.38906 h -0.93556 -0.93556 l -1.02188,2.1131 -1.02187,2.11311 -0.15923,-0.41496 -0.15924,-0.41495 v -1.69815 -1.69815 h -0.79375 -0.79375 v 3.28565 3.28565 l 0.16607,0.43276 0.16607,0.43276 0.81614,-0.0804 0.81615,-0.0804 z m 8.08851,0.0545 0.47025,-2.11667 0.008,-0.59531 0.008,-0.59531 h -0.64584 -0.64585 l -0.15657,0.25335 -0.15658,0.25334 -0.49472,2.32634 -0.49472,2.32634 0.13151,0.21361 0.13149,0.2136 0.68714,-0.0813 0.68713,-0.0813 z m 3.13349,0.47201 0.44857,-1.64467 0.33683,-0.40585 0.33683,-0.40586 h 0.50876 0.50876 l -0.16847,0.99218 -0.16847,0.99219 -0.23513,0.91808 -0.23513,0.91807 0.2288,0.22881 0.22881,0.2288 0.60704,-0.0885 0.60704,-0.0885 0.33831,-1.45521 0.3383,-1.45521 0.0112,-0.95979 0.0112,-0.95979 -0.33073,-0.27299 -0.33073,-0.273 -1.90404,0.0128 -1.90404,0.0128 -0.1734,0.42623 -0.17341,0.42623 -0.45208,2.18888 -0.45209,2.18887 0.13838,0.13838 0.13837,0.13837 0.64597,-0.0783 0.64597,-0.0783 0.44856,-1.64466 z m 20.96115,0.32174 0.72143,-1.32292 0.006,0.97055 0.006,0.97055 0.1606,0.41851 0.1606,0.41852 h 0.70573 0.70573 l 1.26674,-2.55006 1.26674,-2.55005 -0.25289,-0.25289 -0.25288,-0.25288 -0.49112,0.091 -0.49115,0.091 -0.64341,1.29834 -0.64342,1.29833 -0.19788,-0.50458 -0.19789,-0.50459 -0.0186,-0.85989 -0.0186,-0.8599 h -0.66433 -0.66433 l -0.72474,1.47976 -0.72472,1.47977 -0.26979,-1.411 -0.26978,-1.41099 -0.48592,-0.0936 -0.48593,-0.0936 -0.22388,0.22388 -0.22387,0.22388 0.25777,1.98375 0.25777,1.98374 0.13573,0.612 0.13573,0.612 0.71837,-0.0828 0.71838,-0.0828 z m 9.82702,0.26458 0.22969,-1.05833 0.0927,-0.33073 0.0927,-0.33073 h 1.54289 1.54288 l 0.3175,-0.3175 0.3175,-0.3175 v -0.47625 -0.47625 h -1.71979 -1.71979 v -0.28197 -0.28198 l 0.27389,-0.51177 0.2739,-0.51178 h 1.71048 1.71048 v -0.24294 -0.24295 l 0.16429,-0.42812 0.16428,-0.42812 -2.72358,0.0757 -2.72358,0.0758 -0.33917,1.5875 -0.33917,1.5875 -0.26233,1.19062 -0.26233,1.19063 -0.17161,0.87853 -0.17161,0.87853 0.88501,-0.0848 0.88501,-0.0848 z m 6.48676,0.19844 0.25456,-0.99219 0.30277,-1.51754 0.30278,-1.51755 -0.16587,-0.26839 -0.16588,-0.26839 h -0.51922 -0.51923 l -0.25139,0.59531 -0.25139,0.59531 -0.38995,1.96687 -0.38995,1.96687 0.13346,0.21595 0.13346,0.21594 h 0.63565 0.63564 z m 3.1941,-0.0241 0.27365,-1.01627 0.2924,-1.43112 0.29239,-1.43113 0.22638,-1.05833 0.22638,-1.05834 0.0115,-0.2152 0.0115,-0.2152 -0.84956,0.0829 -0.84957,0.0829 -0.2005,1.05833 -0.2005,1.05834 -0.30324,1.45521 -0.30324,1.4552 -0.25301,0.85473 -0.253,0.85472 0.16672,0.26976 0.16672,0.26975 h 0.63564 0.63565 l 0.27365,-1.01627 z m 3.36159,-0.64768 0.34632,-1.53166 0.27768,-0.51886 0.27769,-0.51886 h 0.51985 0.51986 v 0.2251 0.2251 l -0.24274,0.76709 -0.24275,0.76708 -0.15725,1.12448 -0.15726,1.12448 h 0.78444 0.78444 l 0.27554,-0.99219 0.27555,-0.99218 0.002,-0.53644 0.002,-0.53645 0.41188,-0.58803 0.41188,-0.58804 h 0.41596 0.41596 l -0.18042,1.36001 -0.18041,1.36002 -0.15133,0.75665 -0.15155,0.75665 h 0.79541 0.79541 l 0.27637,-1.12448 0.27638,-1.12448 0.17557,-1.21421 0.17557,-1.21421 -0.43943,-0.43944 -0.43944,-0.43943 h -0.65995 -0.65995 l -0.52869,0.28294 -0.52868,0.28295 -0.32909,-0.27312 -0.32909,-0.27312 -1.8305,0.0563 -1.8305,0.0563 -0.1903,0.66146 -0.19031,0.66146 -0.40828,1.81612 -0.40827,1.81613 0.15423,0.24956 0.15424,0.24956 0.68324,-0.0813 0.68324,-0.0813 0.34631,-1.53166 z m -45.99353,-5.16738 0.087,-0.61363 -0.8807,0.0845 -0.88069,0.0845 -0.087,0.61362 -0.0869,0.61363 0.8807,-0.0845 0.8807,-0.0845 0.0869,-0.61363 z m 40.60749,0.20056 0.14261,-0.54535 -0.36088,-0.13848 -0.36088,-0.13849 -0.47848,0.0912 -0.47847,0.0912 -0.0846,0.59261 -0.0846,0.59261 h 0.7813 0.78129 z m -7.95158,-4.7566 1.48691,-0.27487 1.53824,-0.77797 1.53825,-0.77798 0.13459,0.72212 0.13459,0.72211 3.9003,0.0732 3.90031,0.0732 v -1.11707 -1.11707 l 0.93482,-4.77698 0.93482,-4.77698 0.25581,-0.95674 0.2558,-0.95674 v -1.06147 -1.06147 l -0.37708,-0.90248 -0.37708,-0.90248 -0.7419,-0.7419 -0.7419,-0.7419 -0.67676,-0.34996 -0.67675,-0.34997 -2.02957,-0.41922 -2.02957,-0.41921 h -2.5074 -2.5074 l -1.87518,0.39445 -1.87518,0.39446 -1.04518,0.53321 -1.04517,0.53321 -0.90218,0.79212 -0.90218,0.79213 h -0.15696 -0.15697 l 0.25804,-0.67868 0.25803,-0.67869 v -0.64423 -0.64423 h -1.43959 -1.43959 l -0.1412,-0.22848 -0.14121,-0.22847 0.43309,-1.95434 0.4331,-1.95434 0.0232,-0.79375 0.0232,-0.79375 -3.55065,-0.0741 -3.55066,-0.0741 -0.2206,0.2206 -0.2206,0.2206 -0.36829,1.44104 -0.36829,1.44104 -0.18062,1.10925 -0.18061,1.10924 -0.37283,0.30942 -0.37282,0.30942 -0.40025,-0.15359 -0.40024,-0.15359 -0.002,-0.8682 -0.002,-0.8682 -0.28714,-1.03417 -0.28714,-1.03417 -0.6828,-1.03179 -0.68281,-1.03179 -1.10761,-0.6491 -1.10761,-0.64911 -1.4267,-0.44797 -1.4267,-0.44797 -3.70417,0.007 -3.70417,0.006 -1.32291,0.41135 -1.32292,0.41134 -1.24079,0.58401 -1.2408,0.58401 -1.21499,1.29892 -1.21498,1.29892 -0.55523,1.25914 -0.55523,1.25914 -0.12299,1.98438 -0.12298,1.98437 0.76602,1.45414 0.76602,1.45414 1.25481,0.94839 1.25481,0.94838 2.43608,0.81418 2.43608,0.81418 1.51518,0.32974 1.51517,0.32975 0.53535,0.49875 0.53535,0.49876 v 0.50539 0.5054 l -0.88487,0.67492 -0.88487,0.67492 h -1.63798 -1.63799 l -0.62971,-0.4126 -0.62972,-0.41261 -0.41716,-1.0426 -0.41717,-1.0426 h -4.26633 -4.26634 l 0.1614,-0.59532 0.16141,-0.59531 0.29968,-1.68918 0.29968,-1.68918 -0.14344,-1.38976 -0.14343,-1.38976 -0.6707,-1.06244 -0.67069,-1.06244 -1.52118,-0.74425 -1.52118,-0.74425 -1.64264,-0.10459 -1.642641,-0.1046 -1.413211,0.45942 -1.413213,0.45942 -0.926042,0.68236 -0.926042,0.68237 -0.697513,0.78464 -0.697513,0.78464 -0.426688,-0.82513 -0.426688,-0.82512 -0.860174,-0.64912 -0.860174,-0.64912 -1.024498,-0.42289 -1.024501,-0.42289 h -1.016095 -1.016096 l -1.499751,0.56112 -1.499748,0.56113 -0.989639,0.89408 -0.98964,0.89408 h -0.149736 -0.149735 l 0.154572,-0.95252 0.154575,-0.95252 -0.369647,-0.23405 -0.369644,-0.23405 h -3.175 -3.175 l -0.31142,0.19806 -0.31142,0.19807 -0.684175,3.30361 -0.684178,3.30361 -0.80033,3.70417 -0.800331,3.70416 -0.142988,0.79375 -0.142989,0.79375 -0.394846,1.6788 -0.394846,1.6788 0.142645,0.37172 0.142645,0.37173 h 3.718142 3.718145 l 0.236781,-0.59532 0.236778,-0.59531 0.272034,-1.19062 0.272031,-1.19063 0.400902,-1.85208 0.400902,-1.85209 0.445029,-1.98437 0.445027,-1.98438 0.565428,-1.16775 0.56543,-1.16776 0.695095,-0.51896 0.695092,-0.51896 h 0.682321 0.682321 l 0.694705,0.45519 0.694709,0.45519 -0.136816,1.6284 -0.136816,1.6284 -0.71128,3.175 -0.711279,3.175 -0.365307,1.82163 -0.365305,1.82162 0.141467,0.2289 0.141467,0.2289 h 3.792538 3.792535 l 0.179398,-0.46303 0.179395,-0.46302 0.213027,-1.05833 0.213029,-1.05833 0.844476,-4.10104 0.844479,-4.10105 0.486447,-1.10216 0.486449,-1.10216 0.633892,-0.41535 0.633894,-0.41534 0.828527,-0.1657 0.828524,-0.16571 0.710922,0.71092 0.710922,0.71092 -0.184809,1.63375 -0.184806,1.63375 -0.779399,3.69907 -0.779399,3.69907 -0.270184,1.00339 -0.270185,1.00339 0.159748,0.25848 0.159747,0.25848 h 3.656155 3.65616 l 0.28868,-0.34785 0.28868,-0.34784 0.55691,-2.76101 0.55691,-2.76101 0.11789,-0.59532 0.11788,-0.59531 h 0.25955 0.25954 v 0.86382 0.86381 l 0.55565,1.05442 0.55566,1.05441 0.83341,0.89543 0.8334,0.89542 1.98438,0.95573 1.98437,0.95572 4.49792,0.001 4.49792,0.001 0.92604,-0.36759 0.92604,-0.36758 1.42519,-0.67333 1.42518,-0.67333 1.23242,-1.23241 1.23241,-1.23241 0.73371,-1.43084 0.73371,-1.43085 -0.14928,1.45521 -0.14928,1.45521 0.2425,1.02172 0.2425,1.02173 0.72538,0.75714 0.72539,0.75714 1.24422,0.41326 1.24422,0.41327 2.85933,-0.0755 2.85933,-0.0755 0.41779,-1.50775 0.41778,-1.50776 0.59575,0.9094 0.59575,0.9094 1.01432,0.64031 1.01433,0.64032 1.16805,0.26043 1.16805,0.26044 0.67901,0.0283 0.67901,0.0283 1.48691,-0.27487 z m -0.35904,-5.09237 -0.42452,-0.32333 -0.17679,-0.55702 -0.17679,-0.55703 0.16454,-0.42879 0.16454,-0.4288 0.86584,-0.53511 0.86584,-0.53512 2.13864,-0.53228 2.13863,-0.53227 0.40886,-0.1569 0.40885,-0.15689 v 0.58781 0.58782 l -0.67671,1.24335 -0.67672,1.24335 -1.09604,0.71068 -1.09603,0.71069 -1.20381,-0.008 -1.20381,-0.008 -0.42452,-0.32333 z m -10.02652,-1.77651 -0.52917,-0.52917 v -0.39455 -0.39454 l 0.67456,-3.24348 0.67456,-3.24347 0.24581,-0.59531 0.24581,-0.59531 h 1.36166 1.36166 l -0.15875,0.79375 -0.15875,0.79375 4.16058,0.002 4.16057,0.002 0.68819,-0.83725 0.6882,-0.83724 1.49145,-0.12368 1.49146,-0.12369 0.66462,0.43548 0.66462,0.43547 v 0.51628 0.51627 l -0.7276,0.36722 -0.72761,0.36722 -1.05833,0.14773 -1.05833,0.14773 -2.98671,0.42963 -2.98671,0.42963 -1.74326,0.53843 -1.74325,0.53844 -1.24259,1.24259 -1.24259,1.24258 -0.36906,1.24995 -0.36907,1.24994 h -0.4714 -0.47141 l -0.52916,-0.52917 z m -8.44445,-4.74081 -0.33782,-1.89036 -0.83439,-1.22732 -0.83438,-1.22732 -1.418,-0.71679 -1.41799,-0.71679 -3.71111,-1.00758 -3.71111,-1.00758 -0.48224,-0.51763 -0.48225,-0.51764 0.26962,-0.5038 0.26962,-0.5038 0.71152,-0.27514 0.71152,-0.27514 1.30097,0.12092 1.30097,0.12093 0.50703,0.69605 0.50704,0.69605 h 3.6821 3.6821 v 0.64423 0.64424 l -0.23954,0.63004 -0.23954,0.63003 -0.0912,0.90854 -0.0912,0.90854 1.19062,0.1323 1.19063,0.13229 -0.0517,0.66146 -0.0517,0.66145 -0.4959,2.34509 -0.4959,2.34508 z m -94.237613,10.98711 0.305649,-0.36829 0.39996,-2.07911 0.39996,-2.07911 0.228717,-1.20509 0.228716,-1.2051 0.298895,-1.11001 0.298894,-1.11001 h 5.379373 5.379377 l 0.274489,-1.12448 0.274489,-1.12448 0.424746,-1.98437 0.424744,-1.98438 -0.0034,-0.46302 -0.0034,-0.46302 h -5.291667 -5.291667 v -0.35275 -0.35274 l 0.300197,-1.49479 0.300198,-1.4948 6.512822,-0.0707 6.512825,-0.0707 0.426654,-1.85208 0.426651,-1.85208 0.335759,-1.4903 0.335759,-1.4903 -0.182713,-0.29564 -0.182714,-0.29564 H 43.954997 33.419675 l -0.260265,0.33073 -0.260268,0.33073 -0.156192,0.92604 -0.156191,0.92604 -1.05129,5.02709 -1.05129,5.02708 -0.429832,1.98438 -0.429831,1.98437 -0.240538,1.19063 -0.240538,1.19062 -0.376124,1.85208 -0.376124,1.85209 -0.458454,2.17871 -0.458451,2.17871 0.153868,0.40098 0.153868,0.40097 h 3.944657 3.944658 z m 22.209493,-0.0947 0.243967,-0.46302 0.455879,-2.11667 0.45588,-2.11666 0.222173,-1.19063 0.222176,-1.19062 0.417611,-1.85209 0.41761,-1.85208 0.388329,-1.98437 0.388329,-1.98438 0.261895,-1.19062 0.261893,-1.19063 0.235939,-0.97174 0.23594,-0.97175 -0.285028,-0.28503 -0.285025,-0.28502 h -3.486563 -3.48656 l -0.303842,0.36611 -0.30384,0.3661 -0.41579,2.08129 -0.415787,2.08129 -0.396947,1.85208 -0.396943,1.85209 -0.212622,1.05833 -0.212622,1.05833 -0.417954,1.98438 -0.417957,1.98437 -0.522581,2.49147 -0.522584,2.49146 0.136287,0.22052 0.136284,0.22051 h 3.679243 3.679243 z m 9.564849,-0.20005 0.2521,-0.66307 1.361593,-6.67912 1.361596,-6.67911 0.334103,-1.71979 0.334105,-1.7198 0.721794,-3.43958 0.721794,-3.43958 0.231764,-1.15381 0.231762,-1.15381 -0.145394,-0.23525 -0.145393,-0.23526 h -3.656156 -3.656155 l -0.263739,0.33073 -0.26374,0.33073 -0.133109,0.79375 -0.133107,0.79375 -0.72259,3.43958 -0.72259,3.43959 -0.394012,1.85208 -0.394013,1.85208 -0.196143,1.05834 -0.196141,1.05833 -1.265047,6.0101 -1.265047,6.01011 0.155813,0.40604 0.155813,0.40604 h 3.71902 3.719018 z m 102.811601,-0.92443 0.33912,-1.45521 0.55428,-2.91041 0.55429,-2.91042 0.77739,-1.5875 0.7774,-1.5875 0.98181,-0.66146 0.98182,-0.66146 1.73948,-0.0246 1.73949,-0.0246 0.60797,-2.62128 0.60797,-2.62129 0.0535,-0.79375 0.0535,-0.79375 -1.24291,-0.0801 -1.24291,-0.0801 -1.02009,0.27468 -1.02009,0.27468 -1.08635,0.92988 -1.08635,0.92987 -0.0902,1.7e-4 -0.0902,1.7e-4 v -0.99235 -0.99237 l -3.33472,-0.0738 -3.33472,-0.0738 -0.26422,0.33835 -0.26422,0.33834 -0.57964,2.91042 -0.57963,2.91041 -0.65954,3.175 -0.65954,3.175 -0.36445,1.71979 -0.36445,1.7198 -0.32443,1.49898 -0.32443,1.49899 0.16368,0.42654 0.16367,0.42654 3.74935,-0.0734 3.74934,-0.0734 0.33912,-1.45521 z m 12.18986,-20.77207 0.6461,-0.42335 0.51555,-0.84551 0.51555,-0.84553 v -0.79375 -0.79375 l -0.52576,-0.86231 -0.52576,-0.86231 -0.86232,-0.52576 -0.86231,-0.52576 -0.74074,-0.001 -0.74075,-0.001 -0.75725,0.39159 -0.75725,0.39159 -0.54557,0.69359 -0.54558,0.69358 -0.15492,0.83306 -0.15492,0.83305 0.39727,0.94711 0.39726,0.9471 0.45068,0.37581 0.45069,0.37581 0.68908,0.32165 0.68908,0.32165 0.88788,-0.11112 0.88788,-0.11112 0.64611,-0.42334 z m -2.87166,-0.71209 0.3175,-0.3175 v -0.59293 -0.59293 l 0.24435,-0.15101 0.24436,-0.15102 0.50601,0.73071 0.50602,0.73072 0.19128,0.33073 0.19129,0.33073 h -1.25915 -1.25916 z m -1.26069,-0.98803 -0.27389,-0.51177 v -0.76057 -0.76058 l 0.38846,-0.51359 0.38846,-0.51359 0.008,1.78594 0.008,1.78594 h -0.12299 -0.12298 l -0.27389,-0.51178 z m 3.68826,-0.2943 -0.30701,-0.57365 0.2891,-0.2891 0.28909,-0.28909 v -0.55563 -0.55562 l -0.3175,-0.3175 -0.3175,-0.3175 h -1.15332 -1.15332 l 0.16352,-0.26458 0.16352,-0.26459 h 1.05474 1.05475 l 0.66383,0.66383 0.66383,0.66384 -0.0806,1.23371 -0.0805,1.23372 -0.31282,0.1029 -0.31281,0.10291 z m -1.97893,-1.57704 -0.16468,-0.26646 0.40098,-0.15386 0.40097,-0.15387 0.28157,0.17402 0.28157,0.17402 -0.15222,0.2463 -0.15222,0.2463 h -0.36565 -0.36565 z m -117.036157,1.85395 0.437689,-1.98438 0.02532,-0.85989 0.02534,-0.8599 h -3.671771 -3.671769 l -0.261448,0.33073 -0.261445,0.33073 -0.432409,1.95069 -0.432408,1.95068 v 0.63608 0.63607 l 3.902604,-0.0732 3.902604,-0.0732 z" id="path327" inkscape:export-filename="filmstar.svg" inkscape:export-xdpi="368.64" inkscape:export-ydpi="368.64"/></g></svg>
