<?xml version="1.0" encoding="UTF-8" standalone="no"?>
<!-- Created with Inkscape (http://www.inkscape.org/) -->

<svg
   width="44.675842mm"
   height="46.372719mm"
   viewBox="0 0 44.675842 46.372719"
   version="1.1"
   id="svg5"
   xml:space="preserve"
   xmlns:inkscape="http://www.inkscape.org/namespaces/inkscape"
   xmlns:sodipodi="http://sodipodi.sourceforge.net/DTD/sodipodi-0.dtd"
   xmlns="http://www.w3.org/2000/svg"
   xmlns:svg="http://www.w3.org/2000/svg"><sodipodi:namedview
     id="namedview7"
     pagecolor="#ffffff"
     bordercolor="#666666"
     borderopacity="1.0"
     inkscape:showpageshadow="2"
     inkscape:pageopacity="0.0"
     inkscape:pagecheckerboard="0"
     inkscape:deskcolor="#d1d1d1"
     inkscape:document-units="mm"
     showgrid="true"
     showguides="true"><inkscape:grid
       type="xygrid"
       id="grid225" /><sodipodi:guide
       position="370.24715,-80.42304"
       orientation="0,-1"
       id="guide872"
       inkscape:locked="false" /><sodipodi:guide
       position="376.09985,-65.791285"
       orientation="0,-1"
       id="guide874"
       inkscape:locked="false" /><sodipodi:guide
       position="354.92145,-77.508273"
       orientation="0,-1"
       id="guide1568"
       inkscape:locked="false" /><sodipodi:guide
       position="364.11131,-68.197893"
       orientation="0,-1"
       id="guide2296"
       inkscape:locked="false" /></sodipodi:namedview><defs
     id="defs2" /><g
     inkscape:label="Layer 1"
     inkscape:groupmode="layer"
     id="layer1"
     transform="translate(523.48152,-116.97814)"><g
       id="g5020"><path
         id="rect4915"
         style="fill:none;stroke:#ff0000;stroke-width:1.32292;stroke-linecap:round;stroke-linejoin:miter;stroke-dasharray:none;paint-order:markers stroke fill"
         d="m -296.23603,142.40931 -19.67322,19.67322 h -58.75455 v 20.10007 a 10.780381,10.780381 0 0 0 0.16381,1.87223 10.780381,10.780381 0 0 0 0.48627,1.81488 10.780381,10.780381 0 0 0 0.79427,1.70325 10.780381,10.780381 0 0 0 1.07797,1.53893 10.780381,10.780381 0 0 0 1.3286,1.32912 10.780381,10.780381 0 0 0 1.53944,1.07797 10.780381,10.780381 0 0 0 1.70274,0.79375 10.780381,10.780381 0 0 0 1.8154,0.48627 10.780381,10.780381 0 0 0 1.87172,0.16382 h 45.57964 l 22.24826,22.83323 21.86223,-22.83323 h 60.88775 v -20.02979 a 10.780381,10.780381 0 0 0 0,-5.2e-4 10.780381,10.780381 0 0 0 0,-5.1e-4 10.780381,10.780381 0 0 0 0,-5.2e-4 10.780381,10.780381 0 0 0 0,-5.2e-4 10.780381,10.780381 0 0 0 0,-5.1e-4 10.780381,10.780381 0 0 0 0,-5.2e-4 10.780381,10.780381 0 0 0 0,-5.2e-4 10.780381,10.780381 0 0 0 0,-5.1e-4 10.780381,10.780381 0 0 0 0,-5.2e-4 10.780381,10.780381 0 0 0 0,-5.2e-4 10.780381,10.780381 0 0 0 0,-5.1e-4 10.780381,10.780381 0 0 0 0,-5.2e-4 10.780381,10.780381 0 0 0 0,-5.2e-4 10.780381,10.780381 0 0 0 0,-5.1e-4 10.780381,10.780381 0 0 0 0,-5.2e-4 10.780381,10.780381 0 0 0 0,-5.2e-4 10.780381,10.780381 0 0 0 0,-5.1e-4 10.780381,10.780381 0 0 0 0,-5.2e-4 10.780381,10.780381 0 0 0 0,-5.2e-4 10.780381,10.780381 0 0 0 0,-5.1e-4 10.780381,10.780381 0 0 0 0,-5.2e-4 10.780381,10.780381 0 0 0 0,-5.2e-4 10.780381,10.780381 0 0 0 0,-5.1e-4 10.780381,10.780381 0 0 0 0,-5.2e-4 10.780381,10.780381 0 0 0 0,-5.2e-4 10.780381,10.780381 0 0 0 0,-5.1e-4 10.780381,10.780381 0 0 0 0,-5.2e-4 10.780381,10.780381 0 0 0 0,-5.2e-4 10.780381,10.780381 0 0 0 0,-5.1e-4 10.780381,10.780381 0 0 0 0,-5.2e-4 10.780381,10.780381 0 0 0 0,-5.2e-4 10.780381,10.780381 0 0 0 0,-5.1e-4 10.780381,10.780381 0 0 0 0,-5.2e-4 10.780381,10.780381 0 0 0 0,-5.2e-4 10.780381,10.780381 0 0 0 0,-5.2e-4 10.780381,10.780381 0 0 0 0,-5.1e-4 10.780381,10.780381 0 0 0 0,-5.2e-4 10.780381,10.780381 0 0 0 0,-5.2e-4 10.780381,10.780381 0 0 0 0,-5.1e-4 10.780381,10.780381 0 0 0 0,-5.2e-4 10.780381,10.780381 0 0 0 0,-5.2e-4 10.780381,10.780381 0 0 0 0,-5.1e-4 10.780381,10.780381 0 0 0 0,-5.2e-4 10.780381,10.780381 0 0 0 0,-5.2e-4 10.780381,10.780381 0 0 0 0,-5.1e-4 10.780381,10.780381 0 0 0 0,-5.2e-4 10.780381,10.780381 0 0 0 0,-5.2e-4 10.780381,10.780381 0 0 0 0,-5.1e-4 10.780381,10.780381 0 0 0 0,-5.2e-4 10.780381,10.780381 0 0 0 0,-5.2e-4 10.780381,10.780381 0 0 0 0,-5.1e-4 10.780381,10.780381 0 0 0 0,-5.2e-4 10.780381,10.780381 0 0 0 0,-5.2e-4 10.780381,10.780381 0 0 0 0,-5.1e-4 10.780381,10.780381 0 0 0 0,-5.2e-4 10.780381,10.780381 0 0 0 0,-5.2e-4 10.780381,10.780381 0 0 0 0,-5.1e-4 10.780381,10.780381 0 0 0 0,-5.2e-4 10.780381,10.780381 0 0 0 0,-5.2e-4 10.780381,10.780381 0 0 0 0,-5.1e-4 10.780381,10.780381 0 0 0 0,-5.2e-4 10.780381,10.780381 0 0 0 0,-5.2e-4 10.780381,10.780381 0 0 0 0,-5.1e-4 10.780381,10.780381 0 0 0 0,-5.2e-4 10.780381,10.780381 0 0 0 0,-5.2e-4 10.780381,10.780381 0 0 0 0,-5.1e-4 10.780381,10.780381 0 0 0 0,-5.2e-4 10.780381,10.780381 0 0 0 0,-5.2e-4 10.780381,10.780381 0 0 0 0,-5.2e-4 10.780381,10.780381 0 0 0 0,-5.1e-4 10.780381,10.780381 0 0 0 0,-5.2e-4 10.780381,10.780381 0 0 0 0,-5.2e-4 10.780381,10.780381 0 0 0 0,-5.1e-4 10.780381,10.780381 0 0 0 0,-5.2e-4 10.780381,10.780381 0 0 0 0,-5.2e-4 10.780381,10.780381 0 0 0 0,-5.1e-4 10.780381,10.780381 0 0 0 0,-5.2e-4 10.780381,10.780381 0 0 0 0,-5.2e-4 10.780381,10.780381 0 0 0 0,-5.1e-4 10.780381,10.780381 0 0 0 0,-5.2e-4 10.780381,10.780381 0 0 0 0,-5.2e-4 10.780381,10.780381 0 0 0 0,-5.1e-4 10.780381,10.780381 0 0 0 0,-5.2e-4 10.780381,10.780381 0 0 0 0,-5.2e-4 10.780381,10.780381 0 0 0 0,-5.1e-4 10.780381,10.780381 0 0 0 0,-5.2e-4 10.780381,10.780381 0 0 0 0,-5.2e-4 10.780381,10.780381 0 0 0 0,-5.1e-4 10.780381,10.780381 0 0 0 0,-5.2e-4 10.780381,10.780381 0 0 0 0,-5.2e-4 10.780381,10.780381 0 0 0 0,-5.1e-4 10.780381,10.780381 0 0 0 0,-5.2e-4 10.780381,10.780381 0 0 0 0,-5.2e-4 10.780381,10.780381 0 0 0 0,-5.1e-4 10.780381,10.780381 0 0 0 0,-5.2e-4 10.780381,10.780381 0 0 0 0,-5.2e-4 10.780381,10.780381 0 0 0 0,-5.1e-4 10.780381,10.780381 0 0 0 0,-5.2e-4 10.780381,10.780381 0 0 0 0,-5.2e-4 10.780381,10.780381 0 0 0 0,-5.1e-4 10.780381,10.780381 0 0 0 0,-5.2e-4 10.780381,10.780381 0 0 0 0,-5.2e-4 10.780381,10.780381 0 0 0 0,-5.2e-4 10.780381,10.780381 0 0 0 0,-5.1e-4 10.780381,10.780381 0 0 0 0,-5.2e-4 10.780381,10.780381 0 0 0 0,-5.2e-4 10.780381,10.780381 0 0 0 0,-5.1e-4 10.780381,10.780381 0 0 0 0,-5.2e-4 10.780381,10.780381 0 0 0 0,-5.2e-4 10.780381,10.780381 0 0 0 0,-5.1e-4 10.780381,10.780381 0 0 0 0,-5.2e-4 10.780381,10.780381 0 0 0 0,-5.2e-4 10.780381,10.780381 0 0 0 0,-5.1e-4 10.780381,10.780381 0 0 0 0,-5.2e-4 10.780381,10.780381 0 0 0 0,-5.2e-4 10.780381,10.780381 0 0 0 0,-5.1e-4 10.780381,10.780381 0 0 0 0,-5.2e-4 10.780381,10.780381 0 0 0 0,-5.2e-4 10.780381,10.780381 0 0 0 0,-5.1e-4 10.780381,10.780381 0 0 0 0,-5.2e-4 10.780381,10.780381 0 0 0 0,-5.2e-4 10.780381,10.780381 0 0 0 0,-5.1e-4 10.780381,10.780381 0 0 0 0,-5.2e-4 10.780381,10.780381 0 0 0 0,-5.2e-4 10.780381,10.780381 0 0 0 0,-5.1e-4 10.780381,10.780381 0 0 0 0,-5.2e-4 10.780381,10.780381 0 0 0 0,-5.2e-4 10.780381,10.780381 0 0 0 0,-5.1e-4 10.780381,10.780381 0 0 0 0,-5.2e-4 10.780381,10.780381 0 0 0 0,-5.2e-4 10.780381,10.780381 0 0 0 0,-5.1e-4 10.780381,10.780381 0 0 0 0,-5.2e-4 10.780381,10.780381 0 0 0 0,-5.2e-4 10.780381,10.780381 0 0 0 0,-5.1e-4 10.780381,10.780381 0 0 0 0,-5.2e-4 10.780381,10.780381 0 0 0 0,-5.2e-4 10.780381,10.780381 0 0 0 -0.03,-0.80563 10.780381,10.780381 0 0 0 -0.0904,-0.80099 10.780381,10.780381 0 0 0 -0.14987,-0.7922 10.780381,10.780381 0 0 0 -0.20877,-0.77876 10.780381,10.780381 0 0 0 -0.26613,-0.7612 10.780381,10.780381 0 0 0 -0.32246,-0.73845 10.780381,10.780381 0 0 0 -0.37672,-0.71314 10.780381,10.780381 0 0 0 -0.42892,-0.68264 10.780381,10.780381 0 0 0 -0.47852,-0.64854 10.780381,10.780381 0 0 0 -0.52607,-0.61082 10.780381,10.780381 0 0 0 -0.56999,-0.56999 10.780381,10.780381 0 0 0 -0.61081,-0.52606 10.780381,10.780381 0 0 0 -0.64906,-0.47853 10.780381,10.780381 0 0 0 -0.68213,-0.42891 10.780381,10.780381 0 0 0 -0.71313,-0.37672 10.780381,10.780381 0 0 0 -0.73898,-0.32246 10.780381,10.780381 0 0 0 -0.76067,-0.26666 10.780381,10.780381 0 0 0 -0.77877,-0.20825 10.780381,10.780381 0 0 0 -0.7922,-0.14986 10.780381,10.780381 0 0 0 -0.80098,-0.0904 10.780381,10.780381 0 0 0 -0.80564,-0.03 h -52.4769 z" /><g
         id="g5012"
         style="fill:#ff0000"
         transform="translate(-178.77602,-58.709163)"><path
           id="path3988"
           style="fill:#ff0000;stroke:none;stroke-width:0.611525px;stroke-linecap:butt;stroke-linejoin:miter;stroke-opacity:1"
           d="m -117.26864,205.7197 -18.93149,19.4621 c 0,0 -1.46403,2.35058 -1.49738,4.50648 -0.0334,2.15597 1.65967,4.90153 1.65967,4.90153 l 9.56183,-9.63692 18.82901,18.81323 10.394732,-10.50138 c 0,0 1.08577,-2.06608 0.947346,-4.36475 -0.129673,-2.15693 -1.635647,-4.29986 -1.627426,-4.24644 z m 11.60146,21.19925 c 0.23996,0.22855 1.24044,1.28196 1.4512,2.342 0.22398,1.12733 -0.2744,2.01308 -0.2744,2.01308 l -3.02489,3.01747 -14.53899,-14.28979 4.58911,-4.63016 11.74692,11.50244 c -7.3e-4,-0.002 0.0166,0.011 0.0522,0.0442 z" /><path
           style="fill:#ff0000;stroke:none;stroke-width:0.611525px;stroke-linecap:butt;stroke-linejoin:miter;stroke-opacity:1"
           d="m -116.56721,268.94531 18.08974,-18.59314 c 0,0 1.273418,-2.70682 1.223727,-4.92179 -0.0374,-1.64592 -1.034286,-4.46288 -1.034286,-4.46288 l -9.439831,9.38154 -10.27352,-10.18839 -4.56111,4.78379 10.20974,10.12591 -4.56358,4.53134 -12.82563,-12.68831 c 0,0 -0.54633,-0.51897 -0.57579,-1.88176 -0.0233,-1.09193 0.97803,-1.97498 0.97803,-1.97498 l -4.66016,-4.81498 -3.75846,3.76754 c 0,0 -1.14736,1.52939 -1.11027,3.94799 0.0394,2.56141 2.40677,4.62554 2.40677,4.62554 l 19.01704,19.00326 z"
           id="path3990"
           sodipodi:nodetypes="ccscccccccscccsccc" /></g><g
         id="g5100"
         style="fill:#ff0000"
         transform="rotate(-43.598608,-431.16942,668.80802)"
         inkscape:export-filename="icon.svg"
         inkscape:export-xdpi="11.370794"
         inkscape:export-ydpi="11.370794"><path
           id="path5096"
           style="fill:#ff0000;stroke:none;stroke-width:0.611525px;stroke-linecap:butt;stroke-linejoin:miter;stroke-opacity:1"
           d="m -117.26864,205.7197 -18.93149,19.4621 c 0,0 -1.46403,2.35058 -1.49738,4.50648 -0.0334,2.15597 1.65967,4.90153 1.65967,4.90153 l 9.56183,-9.63692 18.82901,18.81323 10.394732,-10.50138 c 0,0 1.08577,-2.06608 0.947346,-4.36475 -0.129673,-2.15693 -1.635647,-4.29986 -1.627426,-4.24644 z m 11.60146,21.19925 c 0.23996,0.22855 1.24044,1.28196 1.4512,2.342 0.22398,1.12733 -0.2744,2.01308 -0.2744,2.01308 l -3.02489,3.01747 -14.53899,-14.28979 4.58911,-4.63016 11.74692,11.50244 c -7.3e-4,-0.002 0.0166,0.011 0.0522,0.0442 z" /><path
           style="fill:#ff0000;stroke:none;stroke-width:0.611525px;stroke-linecap:butt;stroke-linejoin:miter;stroke-opacity:1"
           d="m -116.56721,268.94531 18.08974,-18.59314 c 0,0 1.273418,-2.70682 1.223727,-4.92179 -0.0374,-1.64592 -1.034286,-4.46288 -1.034286,-4.46288 l -9.439831,9.38154 -10.27352,-10.18839 -4.56111,4.78379 10.20974,10.12591 -4.56358,4.53134 -12.82563,-12.68831 c 0,0 -0.54633,-0.51897 -0.57579,-1.88176 -0.0233,-1.09193 0.97803,-1.97498 0.97803,-1.97498 l -4.66016,-4.81498 -3.75846,3.76754 c 0,0 -1.14736,1.52939 -1.11027,3.94799 0.0394,2.56141 2.40677,4.62554 2.40677,4.62554 l 19.01704,19.00326 z"
           id="path5098"
           sodipodi:nodetypes="ccscccccccscccsccc" /></g></g></g></svg>
