<svg xmlns="http://www.w3.org/2000/svg" width="614.857" height="284.501" viewBox="0 0 162.681 75.274" xml:space="preserve"><g style="fill:#000"><path style="fill:#000;stroke:none;stroke-width:.264583px;stroke-linecap:butt;stroke-linejoin:miter;stroke-opacity:1" d="m-190.66 229.109.039 11.747s.259 1.17.9 1.847c.643.676 1.998 1.012 1.998 1.012l.038-5.873 11.516.116.035-6.393s-.29-.967-1.029-1.636c-.693-.627-1.807-.834-1.788-.82zm10.003 3.042c.144-.002.772.02 1.158.284.41.281.524.706.524.706l-.021 1.848-8.82-.016.017-2.82h7.113c-.001-.001.009-.002.03-.003zM-162.915 229.07l-11.167.04v3.145l9.872-.075c-.011-.005.746-.018 1.187.283.41.281.525.706.525.706l-.021 1.848-11.563.06v5.782s.397 1.055.942 1.695c.651.764 2.033 1.239 2.033 1.239l.038-5.642 6.995 5.603 4.598-.038-6.84-5.642 6.685.077-.038-6.601s-.121-.646-1.011-1.502c-.902-.868-2.235-.978-2.235-.978zM-157.582 229.031l-.039 11.825s.194.883.86 1.605c.767.831 1.768 1.332 1.768 1.332l12.017-.078.025-12.15s-.126-.833-.965-1.607c-.982-.906-2.46-.849-2.46-.849zm2.777 3.016 6.919.047s.913-.035 1.52.517c.517.47.595.976.595.976l-.015 7.394-7.42.047s-.618-.304-1.092-.81c-.41-.44-.53-.977-.53-.977zM-92.123 229.638l.038 11.224s.426 1.222 1.112 1.891c.51.498 1.671 1.067 1.671 1.067l.077-5.758 6.26.039-.038-2.86-6.222-.039.04-2.782 7.805.039s.326-.005.747.407c.338.33.296.907.296.907l2.898.077.021-2.302s-.108-.82-.852-1.557c-.787-.78-2.144-.7-2.144-.7l-11.631-.117zM-75.545 229.159l-.039 11.647s.408.844 1.288 1.65c.885.81 1.958 1.325 1.958 1.325l.025-12.231s-.096-.712-1.033-1.531c-.978-.855-2.2-.86-2.2-.86zM-70.908 229.136l.077 11.554s.415 1.006 1.216 1.776c.737.709 2.069 1.122 2.069 1.122l11.013.116.038-3.014-9.351.077s-.781-.063-1.362-.685c-.51-.547-.493-1.17-.493-1.17l.077-9.776zM-54.253 229.174l-.02 11.714s.235 1.38.831 2.003c.564.59 1.99.869 1.99.869l.097-10.953 2.473 10.82 3.362.077 2.627-11.168.078 11.206 3.13.078.003-12.251s-.038-.94-.565-1.583c-.506-.617-1.226-.787-1.226-.787l-4.086-.063-1.43 8.385-2.473-8.308z" transform="translate(196.511 -200.377)"/></g><path style="fill:none;stroke:red;stroke-width:1.32292;stroke-linecap:round;stroke-linejoin:miter;stroke-dasharray:none;paint-order:markers stroke fill" d="m-117.46 201.118-19.673 19.674h-58.755v20.1a10.78 10.78 0 0 0 .164 1.872 10.78 10.78 0 0 0 .486 1.815 10.78 10.78 0 0 0 .795 1.703 10.78 10.78 0 0 0 1.078 1.539 10.78 10.78 0 0 0 1.328 1.33 10.78 10.78 0 0 0 1.54 1.077 10.78 10.78 0 0 0 1.702.794 10.78 10.78 0 0 0 1.816.486 10.78 10.78 0 0 0 1.871.164h45.58l22.248 22.833 21.863-22.833h60.887v-20.03a10.78 10.78 0 0 0 0 0 10.78 10.78 0 0 0 0 0 10.78 10.78 0 0 0 0-.001 10.78 10.78 0 0 0 0 0 10.78 10.78 0 0 0 0-.001 10.78 10.78 0 0 0 0 0 10.78 10.78 0 0 0 0-.001 10.78 10.78 0 0 0 0 0 10.78 10.78 0 0 0 0-.001 10.78 10.78 0 0 0 0-.001 10.78 10.78 0 0 0 0 0 10.78 10.78 0 0 0 0-.001 10.78 10.78 0 0 0 0 0 10.78 10.78 0 0 0 0-.001 10.78 10.78 0 0 0 0 0 10.78 10.78 0 0 0 0-.001 10.78 10.78 0 0 0 0 0 10.78 10.78 0 0 0 0-.001 10.78 10.78 0 0 0 0 0 10.78 10.78 0 0 0 0-.001 10.78 10.78 0 0 0 0 0 10.78 10.78 0 0 0 0-.001 10.78 10.78 0 0 0 0 0 10.78 10.78 0 0 0 0-.001 10.78 10.78 0 0 0 0 0 10.78 10.78 0 0 0 0-.001 10.78 10.78 0 0 0 0 0 10.78 10.78 0 0 0 0-.001 10.78 10.78 0 0 0 0 0 10.78 10.78 0 0 0 0-.001 10.78 10.78 0 0 0 0 0 10.78 10.78 0 0 0 0-.001 10.78 10.78 0 0 0 0 0 10.78 10.78 0 0 0 0-.001 10.78 10.78 0 0 0 0 0 10.78 10.78 0 0 0 0-.001 10.78 10.78 0 0 0 0 0 10.78 10.78 0 0 0 0-.001 10.78 10.78 0 0 0 0-.001 10.78 10.78 0 0 0 0 0 10.78 10.78 0 0 0 0-.001 10.78 10.78 0 0 0 0 0 10.78 10.78 0 0 0 0-.001 10.78 10.78 0 0 0 0 0 10.78 10.78 0 0 0 0-.001 10.78 10.78 0 0 0 0 0 10.78 10.78 0 0 0 0-.001 10.78 10.78 0 0 0 0 0 10.78 10.78 0 0 0 0-.001 10.78 10.78 0 0 0 0 0 10.78 10.78 0 0 0 0-.001 10.78 10.78 0 0 0 0 0 10.78 10.78 0 0 0 0-.001 10.78 10.78 0 0 0 0 0 10.78 10.78 0 0 0 0-.001 10.78 10.78 0 0 0 0 0 10.78 10.78 0 0 0 0-.001 10.78 10.78 0 0 0 0 0 10.78 10.78 0 0 0 0-.001 10.78 10.78 0 0 0 0 0 10.78 10.78 0 0 0 0-.001 10.78 10.78 0 0 0 0 0 10.78 10.78 0 0 0 0-.001 10.78 10.78 0 0 0 0 0 10.78 10.78 0 0 0 0-.001 10.78 10.78 0 0 0 0 0 10.78 10.78 0 0 0 0-.001 10.78 10.78 0 0 0 0 0 10.78 10.78 0 0 0 0-.001 10.78 10.78 0 0 0 0-.001 10.78 10.78 0 0 0 0 0 10.78 10.78 0 0 0 0-.001 10.78 10.78 0 0 0 0 0 10.78 10.78 0 0 0 0-.001 10.78 10.78 0 0 0 0 0 10.78 10.78 0 0 0 0-.001 10.78 10.78 0 0 0 0 0 10.78 10.78 0 0 0 0-.001 10.78 10.78 0 0 0 0 0 10.78 10.78 0 0 0 0-.001 10.78 10.78 0 0 0 0 0 10.78 10.78 0 0 0 0-.001 10.78 10.78 0 0 0 0 0 10.78 10.78 0 0 0 0-.001 10.78 10.78 0 0 0 0 0 10.78 10.78 0 0 0 0-.001 10.78 10.78 0 0 0 0 0 10.78 10.78 0 0 0 0-.001 10.78 10.78 0 0 0 0 0 10.78 10.78 0 0 0 0-.001 10.78 10.78 0 0 0 0 0 10.78 10.78 0 0 0 0-.001 10.78 10.78 0 0 0 0 0 10.78 10.78 0 0 0 0-.001 10.78 10.78 0 0 0 0 0 10.78 10.78 0 0 0 0-.001 10.78 10.78 0 0 0 0 0 10.78 10.78 0 0 0 0-.001 10.78 10.78 0 0 0 0-.001 10.78 10.78 0 0 0 0 0 10.78 10.78 0 0 0 0-.001 10.78 10.78 0 0 0 0 0 10.78 10.78 0 0 0 0-.001 10.78 10.78 0 0 0 0 0 10.78 10.78 0 0 0 0-.001 10.78 10.78 0 0 0 0 0 10.78 10.78 0 0 0 0-.001 10.78 10.78 0 0 0 0 0 10.78 10.78 0 0 0 0-.001 10.78 10.78 0 0 0 0 0 10.78 10.78 0 0 0 0-.001 10.78 10.78 0 0 0 0 0 10.78 10.78 0 0 0 0-.001 10.78 10.78 0 0 0 0 0 10.78 10.78 0 0 0 0-.001 10.78 10.78 0 0 0 0 0 10.78 10.78 0 0 0 0-.001 10.78 10.78 0 0 0 0 0 10.78 10.78 0 0 0 0-.001 10.78 10.78 0 0 0 0 0 10.78 10.78 0 0 0 0-.001 10.78 10.78 0 0 0 0 0 10.78 10.78 0 0 0 0-.001 10.78 10.78 0 0 0 0 0 10.78 10.78 0 0 0 0-.001 10.78 10.78 0 0 0 0 0 10.78 10.78 0 0 0 0-.001 10.78 10.78 0 0 0 0 0 10.78 10.78 0 0 0 0-.001 10.78 10.78 0 0 0 0-.001 10.78 10.78 0 0 0 0 0 10.78 10.78 0 0 0 0-.001 10.78 10.78 0 0 0 0 0 10.78 10.78 0 0 0 0-.001 10.78 10.78 0 0 0 0 0 10.78 10.78 0 0 0 0-.001 10.78 10.78 0 0 0-.03-.806 10.78 10.78 0 0 0-.09-.8 10.78 10.78 0 0 0-.15-.793 10.78 10.78 0 0 0-.209-.779 10.78 10.78 0 0 0-.266-.76 10.78 10.78 0 0 0-.322-.74 10.78 10.78 0 0 0-.377-.712 10.78 10.78 0 0 0-.429-.683 10.78 10.78 0 0 0-.478-.649 10.78 10.78 0 0 0-.527-.61 10.78 10.78 0 0 0-.57-.57 10.78 10.78 0 0 0-.61-.527 10.78 10.78 0 0 0-.65-.478 10.78 10.78 0 0 0-.682-.429 10.78 10.78 0 0 0-.713-.377 10.78 10.78 0 0 0-.739-.322 10.78 10.78 0 0 0-.76-.267 10.78 10.78 0 0 0-.78-.208 10.78 10.78 0 0 0-.791-.15 10.78 10.78 0 0 0-.801-.09 10.78 10.78 0 0 0-.806-.03h-52.477z" transform="translate(196.55 -200.183)"/><g style="fill:red"><path style="fill:red;stroke:none;stroke-width:.611525px;stroke-linecap:butt;stroke-linejoin:miter;stroke-opacity:1" d="m-117.269 205.72-18.931 19.462s-1.464 2.35-1.498 4.506c-.033 2.156 1.66 4.902 1.66 4.902l9.562-9.637 18.829 18.813 10.395-10.501s1.086-2.066.947-4.365c-.13-2.157-1.636-4.3-1.627-4.246zm11.602 21.199c.24.228 1.24 1.282 1.451 2.342.224 1.127-.274 2.013-.274 2.013l-3.025 3.018-14.54-14.29 4.59-4.63 11.747 11.502a.32.32 0 0 1 .052.044z" transform="translate(196.55 -200.183)"/><path style="fill:red;stroke:none;stroke-width:.611525px;stroke-linecap:butt;stroke-linejoin:miter;stroke-opacity:1" d="m-116.567 268.945 18.09-18.593s1.273-2.707 1.223-4.922c-.037-1.646-1.034-4.462-1.034-4.462l-9.44 9.381L-118 240.161l-4.561 4.783 10.21 10.126-4.564 4.532-12.826-12.689s-.546-.519-.576-1.881c-.023-1.092.978-1.975.978-1.975l-4.66-4.815-3.758 3.767s-1.148 1.53-1.11 3.948c.039 2.562 2.406 4.626 2.406 4.626l19.017 19.003z" transform="translate(196.55 -200.183)"/></g></svg>
